<svg width="146" height="146" viewBox="0 0 146 146" fill="none" xmlns="http://www.w3.org/2000/svg">
<path d="M73.2 21C43.8203 21 20 44.8203 20 74.2C20 99.1286 37.1659 119.987 60.3079 125.76C60.0596 125.041 59.9 124.208 59.9 123.175V114.082C57.741 114.082 54.1234 114.082 53.2145 114.082C49.5748 114.082 46.3384 112.517 44.769 109.609C43.0267 106.377 42.7253 101.434 38.4072 98.4104C37.126 97.404 38.1013 96.2558 39.5776 96.411C42.3041 97.1824 44.5651 99.0532 46.6931 101.829C48.8122 104.608 49.8097 105.238 53.7687 105.238C55.6883 105.238 58.5611 105.127 61.2655 104.701C62.7196 101.008 65.2333 97.608 68.3056 96.0031C50.59 94.181 42.1356 85.3675 42.1356 73.402C42.1356 68.2504 44.3301 63.2674 48.0586 59.069C46.835 54.9017 45.2966 46.403 48.5285 43.1667C56.4996 43.1667 61.3187 48.3359 62.4758 49.7324C66.448 48.3714 70.8104 47.6 75.3945 47.6C79.9874 47.6 84.3675 48.3714 88.3487 49.7413C89.4925 48.3537 94.3159 43.1667 102.305 43.1667C105.55 46.4074 103.994 54.9416 102.757 59.1001C106.463 63.2895 108.644 68.2593 108.644 73.402C108.644 85.3587 100.203 94.1677 82.5144 95.9987C87.3822 98.539 90.9333 105.677 90.9333 111.054V123.175C90.9333 123.636 90.8313 123.969 90.7781 124.363C111.508 117.097 126.4 97.4129 126.4 74.2C126.4 44.8203 102.58 21 73.2 21Z" fill="white"/>
<rect x="5.5" y="5.5" width="135" height="135" rx="24.5" stroke="white" stroke-width="11"/>
</svg>
