<svg width="146" height="146" viewBox="0 0 146 146" fill="none" xmlns="http://www.w3.org/2000/svg">
<mask id="path-1-inside-1_316_5" fill="white">
<path fill-rule="evenodd" clip-rule="evenodd" d="M30 0C13.4315 0 0 13.4315 0 30V116C0 132.569 13.4315 146 30 146H116C132.569 146 146 132.569 146 116V30C146 13.4315 132.569 0 116 0H30ZM31.6406 52V112H48.2812V52H31.6406ZM33.6328 41.8047C35.4036 43.4453 37.526 44.2656 40 44.2656C42.474 44.2656 44.5833 43.4453 46.3281 41.8047C48.099 40.138 48.9844 38.1458 48.9844 35.8281C48.9844 33.5365 48.099 31.5703 46.3281 29.9297C44.5833 28.263 42.474 27.4297 40 27.4297C37.526 27.4297 35.4036 28.263 33.6328 29.9297C31.888 31.5703 31.0156 33.5365 31.0156 35.8281C31.0156 38.1458 31.888 40.138 33.6328 41.8047ZM78.252 112V77.3125C78.278 74.7344 78.7598 72.5339 79.6973 70.7109C80.6608 68.862 81.9889 67.4557 83.6816 66.4922C85.4004 65.5286 87.3796 65.0469 89.6191 65.0469C92.9525 65.0469 95.5697 66.0885 97.4707 68.1719C99.3717 70.2292 100.309 73.0938 100.283 76.7656V112H116.924V73.7969C116.924 69.1354 116.064 65.125 114.346 61.7656C112.627 58.3802 110.218 55.776 107.119 53.9531C104.02 52.1302 100.387 51.2188 96.2207 51.2188C91.7676 51.2188 87.9785 52.2474 84.8535 54.3047C81.7285 56.3359 79.502 59.0964 78.1738 62.5859H77.4707V52H61.6113V112H78.252Z"/>
</mask>
<path fill-rule="evenodd" clip-rule="evenodd" d="M30 0C13.4315 0 0 13.4315 0 30V116C0 132.569 13.4315 146 30 146H116C132.569 146 146 132.569 146 116V30C146 13.4315 132.569 0 116 0H30ZM31.6406 52V112H48.2812V52H31.6406ZM33.6328 41.8047C35.4036 43.4453 37.526 44.2656 40 44.2656C42.474 44.2656 44.5833 43.4453 46.3281 41.8047C48.099 40.138 48.9844 38.1458 48.9844 35.8281C48.9844 33.5365 48.099 31.5703 46.3281 29.9297C44.5833 28.263 42.474 27.4297 40 27.4297C37.526 27.4297 35.4036 28.263 33.6328 29.9297C31.888 31.5703 31.0156 33.5365 31.0156 35.8281C31.0156 38.1458 31.888 40.138 33.6328 41.8047ZM78.252 112V77.3125C78.278 74.7344 78.7598 72.5339 79.6973 70.7109C80.6608 68.862 81.9889 67.4557 83.6816 66.4922C85.4004 65.5286 87.3796 65.0469 89.6191 65.0469C92.9525 65.0469 95.5697 66.0885 97.4707 68.1719C99.3717 70.2292 100.309 73.0938 100.283 76.7656V112H116.924V73.7969C116.924 69.1354 116.064 65.125 114.346 61.7656C112.627 58.3802 110.218 55.776 107.119 53.9531C104.02 52.1302 100.387 51.2188 96.2207 51.2188C91.7676 51.2188 87.9785 52.2474 84.8535 54.3047C81.7285 56.3359 79.502 59.0964 78.1738 62.5859H77.4707V52H61.6113V112H78.252Z" fill="white"/>
<path d="M31.6406 112H20.6406V123H31.6406V112ZM31.6406 52V41H20.6406V52H31.6406ZM48.2812 112V123H59.2812V112H48.2812ZM48.2812 52H59.2812V41H48.2812V52ZM33.6328 41.8047L26.0348 49.7589L26.0954 49.8168L26.157 49.8739L33.6328 41.8047ZM46.3281 41.8047L53.8634 49.8184L53.8671 49.8149L46.3281 41.8047ZM46.3281 29.9297L38.7301 37.8839L38.7907 37.9419L38.8523 37.9989L46.3281 29.9297ZM33.6328 29.9297L41.1681 37.9434L41.1718 37.9399L33.6328 29.9297ZM78.252 77.3125L67.2525 77.2014L67.252 77.257V77.3125H78.252ZM78.252 112V123H89.252V112H78.252ZM79.6973 70.7109L69.9424 65.6274L69.9287 65.6537L69.9151 65.6801L79.6973 70.7109ZM83.6816 66.4922L78.3026 56.8971L78.2712 56.9147L78.24 56.9325L83.6816 66.4922ZM97.4707 68.1719L89.3452 75.5864L89.3684 75.6119L89.3918 75.6372L97.4707 68.1719ZM100.283 76.7656L89.2835 76.6876L89.2832 76.7266V76.7656H100.283ZM100.283 112H89.2832V123H100.283V112ZM116.924 112V123H127.924V112H116.924ZM114.346 61.7656L104.537 66.7452L104.545 66.7606L104.553 66.7759L114.346 61.7656ZM107.119 53.9531L101.542 63.4344L101.542 63.4344L107.119 53.9531ZM84.8535 54.3047L90.8484 63.5276L90.8753 63.5101L90.9021 63.4924L84.8535 54.3047ZM78.1738 62.5859V73.5859H85.757L88.4544 66.4987L78.1738 62.5859ZM77.4707 62.5859H66.4707V73.5859H77.4707V62.5859ZM77.4707 52H88.4707V41H77.4707V52ZM61.6113 52V41H50.6113V52H61.6113ZM61.6113 112H50.6113V123H61.6113V112ZM11 30C11 19.5066 19.5066 11 30 11V-11C7.35633 -11 -11 7.35632 -11 30H11ZM11 116V30H-11V116H11ZM30 135C19.5066 135 11 126.493 11 116H-11C-11 138.644 7.35632 157 30 157V135ZM116 135H30V157H116V135ZM135 116C135 126.493 126.493 135 116 135V157C138.644 157 157 138.644 157 116H135ZM135 30V116H157V30H135ZM116 11C126.493 11 135 19.5066 135 30H157C157 7.35633 138.644 -11 116 -11V11ZM30 11H116V-11H30V11ZM42.6406 112V52H20.6406V112H42.6406ZM48.2812 101H31.6406V123H48.2812V101ZM37.2812 52V112H59.2812V52H37.2812ZM31.6406 63H48.2812V41H31.6406V63ZM40 33.2656C39.9911 33.2656 40.043 33.2651 40.1431 33.2829C40.2448 33.3011 40.3742 33.3344 40.5184 33.3901C40.833 33.5117 41.0361 33.6683 41.1087 33.7355L26.157 49.8739C30.0166 53.4497 34.83 55.2656 40 55.2656V33.2656ZM38.7928 33.791C38.888 33.7015 39.1144 33.5291 39.4506 33.3983C39.7805 33.2701 40.0004 33.2656 40 33.2656V55.2656C45.172 55.2656 50.0053 53.4462 53.8634 49.8184L38.7928 33.791ZM37.9844 35.8281C37.9844 35.5467 38.0471 35.091 38.2684 34.593C38.4845 34.1068 38.7328 33.8475 38.7891 33.7945L53.8671 49.8149C57.7244 46.1845 59.9844 41.3427 59.9844 35.8281H37.9844ZM38.8523 37.9989C38.7862 37.9377 38.5209 37.6634 38.2904 37.1515C38.054 36.6266 37.9844 36.14 37.9844 35.8281H59.9844C59.9844 30.294 57.6867 25.4578 53.804 21.8605L38.8523 37.9989ZM40 38.4297C40.0003 38.4297 39.984 38.4297 39.9525 38.4269C39.921 38.4242 39.876 38.4188 39.8194 38.4085C39.7024 38.3872 39.5566 38.3488 39.3958 38.2853C39.0463 38.1472 38.8186 37.9684 38.7301 37.8839L53.9262 21.9755C50.078 18.2996 45.2245 16.4297 40 16.4297V38.4297ZM41.1718 37.9399C41.1056 38.0023 40.9008 38.165 40.573 38.2937C40.4222 38.3529 40.2844 38.3892 40.1728 38.4095C40.1188 38.4193 40.0758 38.4244 40.0455 38.4271C40.0154 38.4297 39.9997 38.4297 40 38.4297V16.4297C34.778 16.4297 29.9441 18.2957 26.0938 21.9195L41.1718 37.9399ZM42.0156 35.8281C42.0156 36.1169 41.9518 36.5839 41.7246 37.0961C41.5021 37.5975 41.2425 37.8734 41.1681 37.9434L26.0975 21.916C22.254 25.53 20.0156 30.351 20.0156 35.8281H42.0156ZM41.2309 33.8505C41.2953 33.912 41.5379 34.1725 41.7461 34.6481C41.9586 35.1332 42.0156 35.5695 42.0156 35.8281H20.0156C20.0156 41.2865 22.2175 46.1125 26.0348 49.7589L41.2309 33.8505ZM67.252 77.3125V112H89.252V77.3125H67.252ZM69.9151 65.6801C68.0188 69.3673 67.2915 73.3414 67.2525 77.2014L89.2514 77.4236C89.2645 76.1273 89.5007 75.7004 89.4794 75.7418L69.9151 65.6801ZM78.24 56.9325C74.5782 59.0169 71.8114 62.0409 69.9424 65.6274L89.4522 75.7945C89.5011 75.7005 89.4982 75.7324 89.4132 75.8224C89.3734 75.8645 89.3249 75.9094 89.2699 75.9525C89.215 75.9956 89.1642 76.0286 89.1233 76.0519L78.24 56.9325ZM89.6191 54.0469C85.757 54.0469 81.8782 54.8926 78.3026 56.8971L89.0607 76.0873C89.0191 76.1106 89.0053 76.1086 89.0567 76.0961C89.115 76.0819 89.29 76.0469 89.6191 76.0469V54.0469ZM105.596 60.7573C101.23 55.9727 95.4307 54.0469 89.6191 54.0469V76.0469C90.1432 76.0469 90.2139 76.1278 90.0143 76.0484C89.9165 76.0095 89.7891 75.9454 89.6534 75.8516C89.5178 75.7578 89.4141 75.662 89.3452 75.5864L105.596 60.7573ZM111.283 76.8437C111.322 71.2716 109.877 65.3899 105.55 60.7065L89.3918 75.6372C89.3041 75.5424 89.2349 75.4448 89.1869 75.3617C89.1402 75.2807 89.1327 75.2463 89.1452 75.2847C89.1739 75.3721 89.2898 75.7898 89.2835 76.6876L111.283 76.8437ZM111.283 112V76.7656H89.2832V112H111.283ZM116.924 101H100.283V123H116.924V101ZM105.924 73.7969V112H127.924V73.7969H105.924ZM104.553 66.7759C105.313 68.2617 105.924 70.4748 105.924 73.7969H127.924C127.924 67.796 126.816 61.9883 124.138 56.7554L104.553 66.7759ZM101.542 63.4344C102.726 64.1308 103.714 65.1237 104.537 66.7452L124.154 56.786C121.54 51.6367 117.71 47.4212 112.696 44.4718L101.542 63.4344ZM96.2207 62.2188C98.742 62.2188 100.386 62.7546 101.542 63.4344L112.696 44.4718C107.654 41.5058 102.033 40.2188 96.2207 40.2188V62.2188ZM90.9021 63.4924C91.9131 62.8268 93.502 62.2188 96.2207 62.2188V40.2188C90.0332 40.2188 84.0439 41.6679 78.8049 45.1169L90.9021 63.4924ZM88.4544 66.4987C88.9546 65.1845 89.6825 64.2854 90.8484 63.5276L78.8586 45.0818C73.7745 48.3865 70.0493 53.0082 67.8932 58.6732L88.4544 66.4987ZM77.4707 73.5859H78.1738V51.5859H77.4707V73.5859ZM66.4707 52V62.5859H88.4707V52H66.4707ZM61.6113 63H77.4707V41H61.6113V63ZM72.6113 112V52H50.6113V112H72.6113ZM78.252 101H61.6113V123H78.252V101Z" fill="white" mask="url(#path-1-inside-1_316_5)"/>
</svg>
