<svg width="147" height="146" viewBox="0 0 147 146" fill="none" xmlns="http://www.w3.org/2000/svg">
<path d="M74.0234 124.047C65.7161 124.047 58.3203 122.914 51.8359 120.648C45.3516 118.409 39.8698 115.115 35.3906 110.766C30.9115 106.443 27.5 101.156 25.1563 94.9062C22.8125 88.6562 21.6406 81.5469 21.6406 73.5781C21.6406 65.7135 22.8125 58.5781 25.1563 52.1719C27.526 45.7656 30.9766 40.2708 35.5078 35.6875C40.0391 31.0781 45.5729 27.5365 52.1094 25.0625C58.6719 22.5885 66.1458 21.3516 74.5313 21.3516C82.2917 21.3516 89.2188 22.4844 95.3125 24.75C101.432 27.0156 106.615 30.2448 110.859 34.4375C115.13 38.6042 118.372 43.5651 120.586 49.3203C122.826 55.0495 123.932 61.3906 123.906 68.3438C123.932 73.1354 123.516 77.5365 122.656 81.5469C121.797 85.5573 120.443 89.0599 118.594 92.0547C116.771 95.0234 114.375 97.3802 111.406 99.125C108.438 100.844 104.844 101.82 100.625 102.055C97.6042 102.289 95.1563 102.068 93.2813 101.391C91.4063 100.714 89.974 99.7109 88.9844 98.3828C88.0208 97.0286 87.3958 95.4531 87.1094 93.6562H86.6406C86.0156 95.2187 84.7917 96.638 82.9688 97.9141C81.1458 99.1641 78.9193 100.141 76.2891 100.844C73.6849 101.521 70.9115 101.768 67.9688 101.586C64.8958 101.404 61.9792 100.687 59.2188 99.4375C56.4844 98.1875 54.0495 96.3776 51.9141 94.0078C49.8047 91.638 48.138 88.7083 46.9141 85.2188C45.7161 81.7292 45.1042 77.6927 45.0781 73.1094C45.1042 68.5781 45.7422 64.6328 46.9922 61.2734C48.2682 57.9141 49.9479 55.0885 52.0313 52.7969C54.1406 50.5052 56.4844 48.7083 59.0625 47.4062C61.6406 46.1042 64.2318 45.2708 66.8359 44.9062C69.7786 44.4635 72.5651 44.4635 75.1953 44.9062C77.8255 45.349 80.0391 46.0651 81.8359 47.0547C83.6589 48.0443 84.7917 49.112 85.2344 50.2578H85.7813V45.8828H98.0078V84.0078C98.0339 85.8047 98.4375 87.1979 99.2188 88.1875C100 89.1771 101.055 89.6719 102.383 89.6719C104.18 89.6719 105.677 88.8776 106.875 87.2891C108.099 85.7005 109.01 83.2656 109.609 79.9844C110.234 76.7031 110.547 72.5234 110.547 67.4453C110.547 62.5495 109.896 58.2526 108.594 54.5547C107.318 50.8307 105.521 47.6667 103.203 45.0625C100.911 42.4323 98.2422 40.2969 95.1953 38.6562C92.1484 37.0156 88.8411 35.8177 85.2734 35.0625C81.7318 34.3073 78.0859 33.9297 74.3359 33.9297C67.8516 33.9297 62.1875 34.9193 57.3438 36.8984C52.5 38.8516 48.4635 41.599 45.2344 45.1406C42.0052 48.6823 39.5833 52.8359 37.9688 57.6016C36.3802 62.3411 35.5729 67.5104 35.5469 73.1094C35.5729 79.2812 36.4323 84.75 38.125 89.5156C39.8438 94.2552 42.3698 98.2396 45.7031 101.469C49.0365 104.698 53.151 107.146 58.0469 108.812C62.9427 110.479 68.5677 111.312 74.9219 111.312C77.9167 111.312 80.8464 111.091 83.7109 110.648C86.5755 110.232 89.1667 109.711 91.4844 109.086C93.8021 108.487 95.6641 107.901 97.0703 107.328L100.938 118.656C99.2969 119.594 97.0703 120.466 94.2578 121.273C91.4714 122.107 88.3203 122.771 84.8047 123.266C81.3151 123.786 77.7214 124.047 74.0234 124.047ZM72.2266 88.7344C75.4036 88.7344 77.9297 88.1224 79.8047 86.8984C81.7057 85.6745 83.0599 83.8646 83.8672 81.4687C84.7005 79.0469 85.0911 76.0651 85.0391 72.5234C85.013 69.3984 84.6094 66.7552 83.8281 64.5938C83.0729 62.4062 81.7578 60.7526 79.8828 59.6328C78.0339 58.487 75.4557 57.9141 72.1484 57.9141C69.2578 57.9141 66.7969 58.526 64.7656 59.75C62.7604 60.974 61.224 62.6927 60.1563 64.9062C59.1146 67.0937 58.5807 69.6719 58.5547 72.6406C58.5807 75.401 59.0234 78.0182 59.8828 80.4922C60.7422 82.9401 62.1615 84.9323 64.1406 86.4687C66.1198 87.9792 68.8151 88.7344 72.2266 88.7344Z" fill="white"/>
<rect x="5.5" y="5.5" width="135" height="135" rx="24.5" stroke="white" stroke-width="11"/>
</svg>
