<svg width="146" height="146" viewBox="0 0 146 146" fill="none" xmlns="http://www.w3.org/2000/svg">
<g clip-path="url(#clip0_316_39)">
<path fill-rule="evenodd" clip-rule="evenodd" d="M27.0045 52.9629L10.4709 68.1743L8.08902 65.5645L24.6226 50.3531L27.0045 52.9629Z" fill="white"/>
<path fill-rule="evenodd" clip-rule="evenodd" d="M137.977 84.227L122.185 98.7554L119.804 96.1455L135.595 81.6172L137.977 84.227Z" fill="white"/>
<path fill-rule="evenodd" clip-rule="evenodd" d="M23.6007 98.9993V50.5054H31.1589V98.9993H23.6007Z" fill="white"/>
<path fill-rule="evenodd" clip-rule="evenodd" d="M69.1797 98.9993V50.5054H76.7378V98.9993H69.1797Z" fill="white"/>
<path fill-rule="evenodd" clip-rule="evenodd" d="M114.759 98.9993V50.5054H122.317V98.9993H114.759Z" fill="white"/>
<path fill-rule="evenodd" clip-rule="evenodd" d="M72.5849 52.9127L30.332 98.9422L28.4801 97.2285L70.733 51.199L72.5849 52.9127Z" fill="white"/>
<path fill-rule="evenodd" clip-rule="evenodd" d="M118.948 52.9127L76.695 98.9422L74.8431 97.2285L117.096 51.199L118.948 52.9127Z" fill="white"/>
</g>
<rect x="5.5" y="5.5" width="135" height="135" rx="24.5" stroke="white" stroke-width="11"/>
<defs>
<clipPath id="clip0_316_39">
<rect width="130" height="49.0351" fill="white" transform="translate(9 50)"/>
</clipPath>
</defs>
</svg>
