<svg width="130" height="46" viewBox="0 0 130 46" fill="none" xmlns="http://www.w3.org/2000/svg">
<g clip-path="url(#clip0_19_17)">
<path fill-rule="evenodd" clip-rule="evenodd" d="M44.342 14.0331L1.36183 45.76L0.0205078 43.9141L43.0006 12.1872L44.342 14.0331Z" fill="white"/>
<path fill-rule="evenodd" clip-rule="evenodd" d="M130 1.98297L87.0195 33.7099L85.6782 31.864L128.658 0.137085L130 1.98297Z" fill="white"/>
<path fill-rule="evenodd" clip-rule="evenodd" d="M42.8286 33.7099V12.2027H45.8554V33.7099H42.8286Z" fill="white"/>
<path fill-rule="evenodd" clip-rule="evenodd" d="M63.4106 33.7099V12.2027H66.4374V33.7099H63.4106Z" fill="white"/>
<path fill-rule="evenodd" clip-rule="evenodd" d="M83.9927 33.7099V12.2027H87.0195V33.7099H83.9927Z" fill="white"/>
<path fill-rule="evenodd" clip-rule="evenodd" d="M64.4703 13.2704L45.8029 33.6845L44.9126 32.8575L63.5801 12.4434L64.4703 13.2704Z" fill="white"/>
<path fill-rule="evenodd" clip-rule="evenodd" d="M84.9537 13.2704L66.2863 33.6845L65.396 32.8575L84.0635 12.4434L84.9537 13.2704Z" fill="white"/>
</g>
<defs>
<clipPath id="clip0_19_17">
<rect width="130" height="45.76" fill="white"/>
</clipPath>
</defs>
</svg>
