<svg width="65" height="86" viewBox="0 0 65 86" fill="none" xmlns="http://www.w3.org/2000/svg">
<path fill-rule="evenodd" clip-rule="evenodd" d="M32.4975 19.7186C28.9382 19.7186 25.9868 20.9625 23.6263 23.4418C21.2656 25.924 20.0924 28.9829 20.0924 32.6184C20.0924 36.1692 21.2656 39.1715 23.6263 41.6084C25.9868 44.0538 28.9891 45.2666 32.619 45.2666C36.1698 45.2666 39.1354 44.0538 41.496 41.6113C43.8537 39.1715 45.0213 36.1692 45.0213 32.6184C45.0213 30.8034 44.6962 29.1044 44.0318 27.5297C43.404 26.0158 42.5032 24.6302 41.3744 23.4418C40.2206 22.257 38.84 21.3166 37.3148 20.6769C35.7897 20.0372 34.1513 19.7114 32.4975 19.7186ZM7.31705 85.4505H57.6808V70.4499H7.31705V85.4505ZM32.619 65.1068C28.076 65.1068 23.8156 64.2643 19.8408 62.5624C15.9744 60.9444 12.46 58.589 9.49381 55.6277C6.53161 52.6551 4.17371 49.1366 2.55063 45.2666C0.841043 41.2704 -0.026992 36.9649 0.000639528 32.6184C0.000639528 28.0697 0.843095 23.8094 2.55063 19.8458C4.17295 15.9763 6.53093 12.4585 9.49381 9.48754C12.4627 6.52746 15.9763 4.1697 19.8408 2.54434C23.8156 0.848113 28.0392 0 32.4975 0C36.9586 0 41.1822 0.848113 45.157 2.54434C49.02 4.17246 52.5331 6.52983 55.5039 9.48754C58.4658 12.4599 60.8245 15.9773 62.4501 19.8458C64.1434 23.8094 65 28.0697 65 32.6184C65 37.0851 64.1434 41.2975 62.4501 45.2666C60.8238 49.1355 58.4652 52.6538 55.5039 55.6277C52.5502 58.5784 49.0567 60.9336 45.2135 62.5652C41.2868 64.2615 37.0886 65.1096 32.619 65.1096V65.1068Z" fill="#F8F9FA"/>
</svg>
